Patient4_TMGait_0pt5_01_left_13_GRF.mot
version=1
nRows=37
nColumns=19
inDegrees=no
endheader
time	F1x	F1y	F1z	M1x	M1y	M1z	F2x	F2y	F2z	M2x	M2y	M2z	EC1x	EC1y	EC1z	EC2x	EC2y	EC2z
17.33	0	0	0	0	0	0	-38.3736	765.8653	-64.8716	299.625	69.4877	641.4658	-0.0462	0.0182	-0.0073	-0.0462	0.0165	0.9715
17.3434	0	0	0	0	0	0	-36.8098	794.3561	-67.3328	310.8062	70.9899	662.8042	-0.0462	0.0182	-0.0073	-0.0462	0.0165	0.9715
17.3567	0	0	0	0	0	0	-33.8464	805.6268	-68.0671	315.3173	70.4335	668.6836	-0.0462	0.0182	-0.0073	-0.0462	0.0165	0.9715
17.3701	0	0	0	0	0	0	-29.9491	804.5267	-67.4146	315.0712	68.2684	663.1729	-0.0462	0.0182	-0.0073	-0.0462	0.0165	0.9715
17.3834	0	0	0	0	0	0	-25.621	796.3132	-65.7923	312.132	65.0336	650.77	-0.0462	0.0182	-0.0073	-0.0462	0.0165	0.9715
17.3968	0	0	0	0	0	0	-21.3178	785.6962	-63.6201	308.3383	61.263	635.5928	-0.0462	0.0182	-0.0073	-0.0462	0.0165	0.9715
17.4101	0	0	0	0	0	0	-17.3823	776.1707	-61.2619	305.0423	57.4087	620.8038	-0.0462	0.0182	-0.0073	-0.0462	0.0165	0.9715
17.4235	0	0	0	0	0	0	-14.0075	769.7101	-58.988	302.9912	53.7929	608.3282	-0.0462	0.0182	-0.0073	-0.0462	0.0165	0.9715
17.4369	0	0	0	0	0	0	-11.2315	766.8048	-56.9615	302.3453	50.5898	598.859	-0.0462	0.0182	-0.0073	-0.0462	0.0165	0.9715
17.4502	0	0	0	0	0	0	-8.9598	766.773	-55.2454	302.8036	47.8377	592.088	-0.0462	0.0182	-0.0073	-0.0462	0.0165	0.9715
17.4636	0	0	0	0	0	0	-7.009	768.2294	-53.8264	303.7912	45.4721	587.0741	-0.0462	0.0182	-0.0073	-0.0462	0.0165	0.9715
17.4769	0	0	0	0	0	0	-5.1595	769.592	-52.6471	304.6605	43.3711	582.6474	-0.0462	0.0182	-0.0073	-0.0462	0.0165	0.9715
17.4903	0	0	0	0	0	0	-3.2059	769.5224	-51.64	304.866	41.4023	577.7663	-0.0462	0.0182	-0.0073	-0.0462	0.0165	0.9715
17.5036	0	0	0	0	0	0	-0.9968	767.2234	-50.7553	304.0817	39.4611	571.765	-0.0462	0.0182	-0.0073	-0.0462	0.0165	0.9715
17.517	0	0	0	0	0	0	1.5425	762.5637	-49.9789	302.2491	37.4956	564.4648	-0.0462	0.0182	-0.0073	-0.0462	0.0165	0.9715
17.5304	0	0	0	0	0	0	4.4059	756.0294	-49.3361	299.5582	35.5139	556.1503	-0.0462	0.0182	-0.0073	-0.0462	0.0165	0.9715
17.5437	0	0	0	0	0	0	7.5163	748.5394	-48.8837	296.3726	33.5755	547.439	-0.0462	0.0182	-0.0073	-0.0462	0.0165	0.9715
17.5571	0	0	0	0	0	0	10.7448	741.1739	-48.6901	293.1227	31.7718	539.0828	-0.0462	0.0182	-0.0073	-0.0462	0.0165	0.9715
17.5704	0	0	0	0	0	0	13.9337	734.8757	-48.812	290.1878	30.2006	531.7491	-0.0462	0.0182	-0.0073	-0.0462	0.0165	0.9715
17.5838	0	0	0	0	0	0	16.918	730.1852	-49.2703	287.7913	28.9414	525.8253	-0.0462	0.0182	-0.0073	-0.0462	0.0165	0.9715
17.5971	0	0	0	0	0	0	19.5432	727.0581	-50.0329	285.9302	28.036	521.2858	-0.0462	0.0182	-0.0073	-0.0462	0.0165	0.9715
17.6105	0	0	0	0	0	0	21.6783	724.8018	-51.0061	284.3497	27.478	517.6449	-0.0462	0.0182	-0.0073	-0.0462	0.0165	0.9715
17.6239	17.5249	14.4512	1.1179	-5.2049	5.988	10.2604	23.2252	722.1421	-52.038	282.5704	27.2116	514.0044	-0.0462	0.0182	-0.0073	-0.0462	0.0165	0.9715
17.6372	18.8663	40.9593	1.7035	-14.9841	5.8542	34.5569	24.1232	717.4105	-52.933	279.9616	27.1387	509.1854	-0.0462	0.0182	-0.0073	-0.0462	0.0165	0.9715
17.6506	18.3112	76.1128	2.8212	-27.9415	4.5124	66.8117	24.3535	708.8148	-53.4761	275.847	27.1333	501.9202	-0.0462	0.0182	-0.0073	-0.0462	0.0165	0.9715
17.6639	15.64	118.8852	4.5607	-43.6968	1.8117	106.0378	23.9406	694.7466	-53.4635	269.6244	27.0603	491.066	-0.0462	0.0182	-0.0073	-0.0462	0.0165	0.9715
17.6773	10.9722	167.3136	6.9561	-61.5269	-2.2179	150.3646	22.9546	674.0664	-52.7352	260.8751	26.795	475.8029	-0.0462	0.0182	-0.0073	-0.0462	0.0165	0.9715
17.6906	4.7587	218.7514	9.9661	-80.4591	-7.3529	197.2762	21.5087	646.3149	-51.2024	249.4446	26.2413	455.779	-0.0462	0.0182	-0.0073	-0.0462	0.0165	0.9715
17.704	-2.314	270.2951	13.4634	-99.4285	-13.2045	244.0183	19.7525	611.8099	-48.8649	235.4776	25.3443	431.1771	-0.0462	0.0182	-0.0073	-0.0462	0.0165	0.9715
17.7174	-9.4749	319.2913	17.2395	-117.4649	-19.2824	288.0825	17.857	571.6074	-45.8131	219.4005	24.0972	402.6899	-0.0462	0.0182	-0.0073	-0.0462	0.0165	0.9715
17.7307	-16.0194	363.7694	21.0323	-133.8489	-25.0789	327.6198	15.9922	527.3314	-42.2138	201.8526	22.5394	371.4064	-0.0462	0.0182	-0.0073	-0.0462	0.0165	0.9715
17.7441	-21.4193	402.6689	24.5739	-148.1933	-30.1533	361.657	14.3011	480.9083	-38.2813	183.5828	20.7482	338.633	-0.0462	0.0182	-0.0073	-0.0462	0.0165	0.9715
17.7574	-25.377	435.8335	27.6438	-160.4375	-34.201	390.0887	12.8759	434.2689	-34.2407	165.3331	18.8244	305.692	-0.0462	0.0182	-0.0073	-0.0462	0.0165	0.9715
17.7708	-27.8276	463.8329	30.1134	-170.7797	-37.0916	413.5027	11.7441	389.0817	-30.2949	147.7369	16.877	273.7392	-0.0462	0.0182	-0.0073	-0.0462	0.0165	0.9715
17.7841	-28.9031	487.7032	31.9701	-179.5818	-38.8747	432.9253	10.8665	346.5693	-26.6015	131.2498	15.0097	243.6345	-0.0462	0.0182	-0.0073	-0.0462	0.0165	0.9715
17.7975	-28.8736	508.6881	33.3166	-187.2766	-39.754	449.5668	10.1483	307.428	-23.2628	116.121	13.3118	215.8832	-0.0462	0.0182	-0.0073	-0.0462	0.0165	0.9715
17.8109	-28.08	528.0306	34.3447	-194.2954	-40.0362	464.6135	9.4591	271.8526	-20.3284	102.4055	11.8526	190.6469	-0.0462	0.0182	-0.0073	-0.0462	0.0165	0.9715
